<svg width="24" height="24" viewBox="0 0 24 24" fill="none" xmlns="http://www.w3.org/2000/svg">
<path fill-rule="evenodd" clip-rule="evenodd" d="M2.11938 2.4823H21.1539V21.5168H2.11938V2.4823Z" fill="#016FD0"/>
<path fill-rule="evenodd" clip-rule="evenodd" d="M9.01428 18.5047V11.684L21.153 11.6946V13.579L19.7498 15.0785L21.153 16.5917V18.5153H18.9133L17.7226 17.2019L16.5403 18.5206L9.01428 18.5047Z" fill="white"/>
<path fill-rule="evenodd" clip-rule="evenodd" d="M9.82397 17.7562V12.434H14.3373V13.6596H11.2854V14.4918H14.2643V15.6973H11.2854V16.5147H14.3373V17.7562H9.82397Z" fill="#016FD0"/>
<path fill-rule="evenodd" clip-rule="evenodd" d="M14.314 17.7562L16.8117 15.0914L14.314 12.434H16.2471L17.773 14.1206L19.3031 12.434H21.1527V12.4763L18.7088 15.0914L21.1527 17.68V17.7562H19.2841L17.7317 16.0526L16.1942 17.7562H14.314Z" fill="#016FD0"/>
<path fill-rule="evenodd" clip-rule="evenodd" d="M9.58055 5.63074H12.5067L13.5345 7.96464V5.63074H17.1468L17.7697 7.37984L18.3946 5.63074H21.1536V12.4514H6.57532L9.58055 5.63074Z" fill="white"/>
<path fill-rule="evenodd" clip-rule="evenodd" d="M10.1355 6.37219L7.77417 11.6901H9.39424L9.83948 10.6253H12.2536L12.6988 11.6901H14.3591L12.0061 6.37219H10.1355ZM10.3385 9.43138L11.0471 7.73836L11.7545 9.43138H10.3385Z" fill="#016FD0"/>
<path fill-rule="evenodd" clip-rule="evenodd" d="M14.3353 11.6894V6.37146L16.6121 6.37993L17.7838 9.64859L18.9629 6.37146H21.1539V11.6894L19.7443 11.7022V8.04859L18.4129 11.6894H17.1261L15.7672 8.03696V11.6894H14.3353Z" fill="#016FD0"/>
</svg>
