<svg width="18" height="18" viewBox="0 0 18 18" fill="none" xmlns="http://www.w3.org/2000/svg">
<path fill-rule="evenodd" clip-rule="evenodd" d="M9 16.5C13.1423 16.5 16.5 13.1423 16.5 9C16.5 4.85775 13.1423 1.5 9 1.5C4.85775 1.5 1.5 4.85775 1.5 9C1.5 13.1423 4.85775 16.5 9 16.5ZM9.5625 6.75C9.5625 6.60082 9.50324 6.45774 9.39775 6.35225C9.29226 6.24676 9.14918 6.1875 9 6.1875C8.85082 6.1875 8.70774 6.24676 8.60225 6.35225C8.49676 6.45774 8.4375 6.60082 8.4375 6.75V8.4375H6.75C6.60082 8.4375 6.45774 8.49676 6.35225 8.60225C6.24676 8.70774 6.1875 8.85082 6.1875 9C6.1875 9.14918 6.24676 9.29226 6.35225 9.39775C6.45774 9.50324 6.60082 9.5625 6.75 9.5625H8.4375V11.25C8.4375 11.3992 8.49676 11.5423 8.60225 11.6477C8.70774 11.7532 8.85082 11.8125 9 11.8125C9.14918 11.8125 9.29226 11.7532 9.39775 11.6477C9.50324 11.5423 9.5625 11.3992 9.5625 11.25V9.5625H11.25C11.3992 9.5625 11.5423 9.50324 11.6477 9.39775C11.7532 9.29226 11.8125 9.14918 11.8125 9C11.8125 8.85082 11.7532 8.70774 11.6477 8.60225C11.5423 8.49676 11.3992 8.4375 11.25 8.4375H9.5625V6.75Z" fill="#D1DCFF"/>
</svg>
