<svg width="32" height="33" viewBox="0 0 32 33" fill="none" xmlns="http://www.w3.org/2000/svg">
<rect width="32" height="32.5833" rx="16" fill="#3364FF"/>
<path fill-rule="evenodd" clip-rule="evenodd" d="M15.9583 13.1667C15.1295 13.1667 14.3347 13.4959 13.7486 14.082C13.1626 14.668 12.8333 15.4629 12.8333 16.2917C12.8333 17.1205 13.1626 17.9153 13.7486 18.5014C14.3347 19.0874 15.1295 19.4167 15.9583 19.4167C16.7871 19.4167 17.582 19.0874 18.168 18.5014C18.7541 17.9153 19.0833 17.1205 19.0833 16.2917C19.0833 15.4629 18.7541 14.668 18.168 14.082C17.582 13.4959 16.7871 13.1667 15.9583 13.1667ZM14.0833 16.2917C14.0833 15.7944 14.2809 15.3175 14.6325 14.9658C14.9841 14.6142 15.461 14.4167 15.9583 14.4167C16.4556 14.4167 16.9325 14.6142 17.2842 14.9658C17.6358 15.3175 17.8333 15.7944 17.8333 16.2917C17.8333 16.789 17.6358 17.2659 17.2842 17.6175C16.9325 17.9691 16.4556 18.1667 15.9583 18.1667C15.461 18.1667 14.9841 17.9691 14.6325 17.6175C14.2809 17.2659 14.0833 16.789 14.0833 16.2917Z" fill="#F0F0F0"/>
<path fill-rule="evenodd" clip-rule="evenodd" d="M15.9583 9C12.1967 9 9.6625 11.2533 8.19167 13.1642L8.16583 13.1983C7.8325 13.6308 7.52667 14.0283 7.31917 14.4983C7.09667 15.0025 7 15.5517 7 16.2917C7 17.0317 7.09667 17.5808 7.31917 18.085C7.5275 18.555 7.83333 18.9533 8.16583 19.385L8.1925 19.4192C9.6625 21.33 12.1967 23.5833 15.9583 23.5833C19.72 23.5833 22.2542 21.33 23.725 19.4192L23.7508 19.385C24.0842 18.9533 24.39 18.555 24.5975 18.085C24.82 17.5808 24.9167 17.0317 24.9167 16.2917C24.9167 15.5517 24.82 15.0025 24.5975 14.4983C24.3892 14.0283 24.0833 13.6308 23.7508 13.1983L23.7242 13.1642C22.2542 11.2533 19.72 9 15.9583 9ZM9.18333 13.9267C10.54 12.1625 12.75 10.25 15.9583 10.25C19.1667 10.25 21.3758 12.1625 22.7333 13.9267C23.1 14.4017 23.3133 14.685 23.4542 15.0033C23.5858 15.3017 23.6667 15.6658 23.6667 16.2917C23.6667 16.9175 23.5858 17.2817 23.4542 17.58C23.3133 17.8983 23.0992 18.1817 22.7342 18.6567C21.375 20.4208 19.1667 22.3333 15.9583 22.3333C12.75 22.3333 10.5408 20.4208 9.18333 18.6567C8.81667 18.1817 8.60333 17.8983 8.4625 17.58C8.33083 17.2817 8.25 16.9175 8.25 16.2917C8.25 15.6658 8.33083 15.3017 8.4625 15.0033C8.60333 14.685 8.81833 14.4017 9.18333 13.9267Z" fill="#F0F0F0"/>
</svg>
