<svg width="14" height="21" viewBox="0 0 14 21" fill="none" xmlns="http://www.w3.org/2000/svg">
<path d="M6.592 12.928L3.392 13.6C3.072 13.3867 2.77333 13.0667 2.496 12.64C2.21867 12.2133 2.08 11.712 2.08 11.136C2.08 10.56 2.22933 10.1227 2.528 9.824C2.848 9.52533 3.31733 9.30133 3.936 9.152L6.368 8.544C7.136 8.33067 7.70133 8.04267 8.064 7.68C8.448 7.31733 8.64 6.816 8.64 6.176C8.64 5.62133 8.40533 5.12 7.936 4.672C7.46667 4.224 6.67733 4 5.568 4C4.71467 4 3.88267 4.11733 3.072 4.352C2.28267 4.58667 1.64267 4.87467 1.152 5.216C0.853333 4.96 0.586667 4.65067 0.352 4.288C0.117333 3.92533 0 3.50933 0 3.04C0 2.016 0.576 1.25867 1.728 0.768C2.90133 0.256 4.384 0 6.176 0C7.79733 0 9.16267 0.266666 10.272 0.799999C11.3813 1.312 12.224 2.03733 12.8 2.976C13.3973 3.89333 13.696 4.96 13.696 6.176C13.696 8.01067 13.0987 9.472 11.904 10.56C10.7307 11.648 8.96 12.4373 6.592 12.928ZM2.496 18.048C2.496 17.2587 2.74133 16.608 3.232 16.096C3.744 15.584 4.42667 15.328 5.28 15.328C6.112 15.328 6.77333 15.584 7.264 16.096C7.776 16.608 8.032 17.2587 8.032 18.048C8.032 18.8373 7.776 19.488 7.264 20C6.77333 20.512 6.112 20.768 5.28 20.768C4.42667 20.768 3.744 20.512 3.232 20C2.74133 19.488 2.496 18.8373 2.496 18.048Z" fill="white"/>
</svg>
