<svg width="15" height="15" viewBox="0 0 15 15" fill="none" xmlns="http://www.w3.org/2000/svg">
<path fill-rule="evenodd" clip-rule="evenodd" d="M7.5 15C11.6423 15 15 11.6423 15 7.5C15 3.35775 11.6423 0 7.5 0C3.35775 0 0 3.35775 0 7.5C0 11.6423 3.35775 15 7.5 15ZM8.0625 5.25C8.0625 5.10082 8.00324 4.95774 7.89775 4.85225C7.79226 4.74676 7.64918 4.6875 7.5 4.6875C7.35082 4.6875 7.20774 4.74676 7.10225 4.85225C6.99676 4.95774 6.9375 5.10082 6.9375 5.25V6.9375H5.25C5.10082 6.9375 4.95774 6.99676 4.85225 7.10225C4.74676 7.20774 4.6875 7.35082 4.6875 7.5C4.6875 7.64918 4.74676 7.79226 4.85225 7.89775C4.95774 8.00324 5.10082 8.0625 5.25 8.0625H6.9375V9.75C6.9375 9.89918 6.99676 10.0423 7.10225 10.1477C7.20774 10.2532 7.35082 10.3125 7.5 10.3125C7.64918 10.3125 7.79226 10.2532 7.89775 10.1477C8.00324 10.0423 8.0625 9.89918 8.0625 9.75V8.0625H9.75C9.89918 8.0625 10.0423 8.00324 10.1477 7.89775C10.2532 7.79226 10.3125 7.64918 10.3125 7.5C10.3125 7.35082 10.2532 7.20774 10.1477 7.10225C10.0423 6.99676 9.89918 6.9375 9.75 6.9375H8.0625V5.25Z" fill="#D1DCFF"/>
</svg>
